<?xml version="1.0" encoding="UTF-8"?>
<svg width="116px" height="60px" viewBox="0 0 116 60" version="1.1" xmlns="http://www.w3.org/2000/svg" xmlns:xlink="http://www.w3.org/1999/xlink">
    <!-- Generator: Sketch 53.1 (72631) - https://sketchapp.com -->
    <title>Group 15</title>
    <desc>Created with Sketch.</desc>
    <g id="Site" stroke="none" stroke-width="1" fill="none" fill-rule="evenodd">
        <g id="Home-03" transform="translate(-30.000000, -19.000000)">
            <g id="Group-15" transform="translate(30.000000, 19.000000)">
                <path d="M62,38.0644922 C61.3322839,38.399508 60.4121012,38.7229937 59.2382232,39.0336681 C58.0637309,39.3443425 56.9408377,39.5 55.868315,39.5 C51.2317733,39.5 48.9135025,37.1388747 48.9135025,32.4159834 L48.9135025,24.846418 L46,24.846418 L46,23.6722609 L54.6348524,14.5 L55.3676815,14.5 L55.3676815,20.1856616 L61.5171805,20.1856616 L61.5171805,24.846418 L55.3676815,24.846418 L55.3676815,30.9241058 C55.3676815,31.6319309 55.4094521,32.2045967 55.4923792,32.6395408 C55.5759205,33.074485 55.8111875,33.4376858 56.1987945,33.7297837 C56.5864015,34.0218817 57.1736476,34.1679307 57.9593043,34.1679307 C58.9851422,34.1679307 60.331017,33.7208158 62,32.8259455 L62,38.0644922 Z" id="Fill-1" fill="#FFFFFF"></path>
                <path d="M70.5180356,16.3135088 C70.5180356,17.0904822 70.2684877,17.7504646 69.7699629,18.2934559 C69.2714381,18.8364472 68.6781193,19.1079429 67.9917198,19.1079429 C67.5263158,19.1079429 67.1025983,18.9845936 66.7205672,18.7378949 C66.3379652,18.4905605 66.0358808,18.1548469 65.8148853,17.7294825 C65.5927477,17.3034823 65.4825355,16.831703 65.4825355,16.3135088 C65.4825355,15.5486159 65.7252308,14.8886335 66.2134767,14.3335616 C66.7005806,13.7784897 67.2938993,13.5 67.9917198,13.5 C68.6781193,13.5 69.2714381,13.7784897 69.7699629,14.3335616 C70.2684877,14.8886335 70.5180356,15.5486159 70.5180356,16.3135088 L70.5180356,16.3135088 Z M65,39.5 L71,39.5 L71,20.6625257 L65,20.6625257 L65,39.5 Z" id="Fill-3" fill="#FFFFFF"></path>
                <path d="M90,38.3281393 C89.474878,38.5325336 88.9215171,38.7214435 88.3381149,38.8961077 C87.7559144,39.0707719 87.0998122,39.2144673 86.371611,39.329052 C85.6428089,39.442398 84.8473151,39.5 83.9839279,39.5 C82.0372512,39.5 80.3909876,39.1605816 79.0451371,38.4811253 C77.6980849,37.8029078 76.6604581,36.9487873 75.9322569,35.9212414 C75.2034548,34.8943148 74.6987608,33.84571 74.4187758,32.7766658 C74.1399925,31.7063828 74,30.7636915 74,29.9454948 C74,29.1291563 74.141795,28.1852262 74.428389,27.116182 C74.7137814,26.0458991 75.2124671,25.0127787 75.9232445,24.0155822 C76.6346226,23.0177663 77.663237,22.1828465 79.0096883,21.509584 C80.3561397,20.8363216 82.0144198,20.5 83.9839279,20.5 C85.3021404,20.5 86.3740143,20.5966228 87.2019527,20.7886295 C88.0298911,20.9812557 88.8686444,21.2395358 89.720015,21.5634698 L89.720015,26.6652758 C87.6681938,25.9920133 86.0651896,25.6556917 84.9110026,25.6556917 C83.7922644,25.6556917 82.7984979,26.0044008 81.9297033,26.7011996 C81.0615096,27.3979984 80.6265115,28.4794302 80.6265115,29.9454948 C80.6265115,30.919155 80.8428089,31.7398292 81.274202,32.4062785 C81.7049944,33.0739666 82.2529478,33.5632742 82.9180623,33.8760595 C83.5819752,34.1876059 84.2464889,34.3443083 84.9110026,34.3443083 C85.5406684,34.3443083 86.257454,34.2483049 87.0619602,34.0556787 C87.8664664,33.8636719 88.845813,33.5874299 90,33.2263333 L90,38.3281393 Z" id="Fill-5" fill="#FFFFFF"></path>
                <polygon id="Fill-7" fill="#FFFFFF" points="116 39.5 107.704703 39.5 100.606923 30.7877755 100.606923 39.5 94 39.5 94 14.5 100.606923 14.5 100.606923 29.1645759 107.087234 21.1378263 114.929096 21.1378263 107.704703 29.7056425"></polygon>
                <path d="M39.3754289,28.111178 L33.1648808,28.111178 C33.3392055,25.6721435 34.316292,24.5409241 36.2704651,24.5409241 C38.2240178,24.5409241 39.2011043,25.6721435 39.3754289,28.111178 M46.1132936,46.3162674 C44.2261208,44.7357026 41.7080292,43.314137 39.3450307,42.5725599 C36.8716059,41.7951609 34.0879949,42.600212 32.5966197,40.1222132 C32.7256571,40.3365164 37.2276997,40.3308603 40.1974224,39.4459955 C43.1665247,38.5598737 44.9234194,36.2854944 44.9234194,33.6258721 L44.9234194,33.4844697 L43.8743696,33.4844697 L39.7246986,33.4844697 C39.7246986,34.6150606 38.5379262,35.7104579 36.6191144,35.7104579 C34.5600983,35.7104579 33.3392055,34.756463 33.1301399,32.1408325 L44.0127127,32.1408325 L44.9234194,32.1408325 L44.9234194,29.631411 C44.9234194,24.851381 42.7880975,21.1629776 38.2848143,20.4597363 C36.8685041,20.2391485 34.1841527,19.8997827 32.378869,19.9255494 C33.9353833,17.5349059 36.6383459,18.2224358 39.1694653,17.4745742 C41.5200564,16.7801312 44.2862969,15.1310649 46.1790531,13.5561562 C48.0227999,12.0227256 56.0367706,3.99421076 54.8878409,2.00640705 C53.8356893,3.18476049 51.2450142,5.64704786 50.0743714,6.94166551 C48.1431521,9.07778464 46.2646645,11.2912038 43.9146938,12.8095515 C41.0504344,14.6603519 38.366083,15.2712104 35.2176931,16.2974777 C34.3497921,16.5802825 32.3782486,16.9077076 31.5785886,17.4343531 C30.8000212,17.946544 30.4507515,18.9885227 29.7577956,19.4787177 C28.6702827,20.2473184 28.2813092,20.057525 26.8984991,20.4371119 C27.6814091,18.9061951 27.8240948,18.4034309 28.9891541,17.1270385 C30.7770674,15.1700291 32.4284988,12.7221962 32.8739261,10.0537755 C33.1723253,8.26330674 32.966982,6.74433059 32.1232755,5.22472598 C31.3999213,3.92130996 28.9178113,1.11274379 28.3700225,0.5 C27.2353614,2.45763786 30.5971594,5.54963731 31.0649202,7.13083052 C31.5655607,8.82388875 30.9619384,9.9601357 30.4960387,11.252868 C29.8688422,12.991175 28.880589,13.9363716 28.0071046,15.1040413 C26.8048229,16.7122581 25.5746244,19.0834194 24.6155287,20.7054622 C23.8791466,21.9504319 22.2060023,22.0346449 22.4665587,20.1662477 C22.8083839,17.7152725 25.0814284,16.0542655 25.3847905,13.2802644 C25.5535318,11.7342647 25.3376422,9.9293414 24.6657789,8.81257656 C23.7066831,7.2194427 22.5838091,6.86625089 21.6265744,4.51771391 C19.375243,7.05164517 23.4963769,8.96780499 23.6651182,11.617372 C23.8487484,14.5120365 22.0930945,16.650041 21.0583133,19.2040828 C20.6091637,20.3133062 20.5973766,23.5096292 19.5644566,23.7817503 C18.8193893,23.9778283 17.5513481,21.8926141 17.4818664,21.4426402 C17.1077818,18.9960642 18.0910721,17.0220865 16.9458647,14.2631683 C15.9222502,11.7958533 14.1957538,9.51267562 11.7328753,8.42042053 C9.04542208,7.22886953 6.48080255,8.25576528 4.11408183,9.63396747 C3.58924677,9.93939668 3.01912453,10.4170226 2.27964063,10.4214218 C2.05072321,10.4226787 0.612079604,8.89678955 0.156726259,9.65219267 C-0.327164217,10.4547299 2.05444545,11.9215443 2.53089145,11.9975874 C4.35540669,12.2904475 6.68490508,9.94379587 8.58882799,9.87592271 C9.3394786,9.84952759 10.9536876,10.1807235 11.9109222,10.8550559 C13.1243706,11.7103834 12.716786,11.6607354 13.6541687,12.9302148 C15.7007772,15.7004452 15.3632946,16.0574078 15.4116837,19.3071495 C15.4520079,22.0717238 16.0841674,23.4423845 17.6419225,25.6482622 C15.4023781,26.3043694 8.00009457,26.990014 8.00815941,29.8570264 C8.01684463,32.8076235 15.3769428,33.3267275 17.6338576,34.1078972 C16.2398809,36.2081944 15.6151658,37.3544967 15.4067207,39.8909417 C15.1244513,43.3285915 15.903639,43.9639597 13.5952333,46.8089763 C12.6814247,47.9357964 12.9823054,48.0702858 11.8433016,48.8765938 C11.2477441,49.2989156 9.29046918,50.0348367 8.8177454,50.0404928 C6.911341,50.0606033 4.73817647,47.6221972 2.84479989,47.7736549 C2.42604852,47.8069631 -0.536229718,48.9916011 0.0853834321,50.0310659 C0.525227467,50.7682438 1.93595432,49.3372514 2.06809364,49.3347376 C3.00609671,49.3183978 3.15560646,49.6992416 3.84235872,50.0549472 C5.95906936,51.1497161 8.42070706,52.3846305 10.9152245,51.6738477 C13.5300942,50.9291284 15.5276933,48.3845134 16.6362988,46.0164943 C17.1394208,44.9418359 17.5966353,43.9539044 17.6965153,42.753555 C17.8106638,41.3747244 17.2783843,39.4485093 17.4576719,38.310377 C17.5252925,37.8811421 18.7790651,35.9404725 19.3467059,36.0096026 C20.6947751,36.1748863 20.3734222,38.6880785 20.7958958,39.9600718 C21.6706209,42.5939274 23.7575537,44.8211725 23.6793867,47.73092 C23.6043217,50.5294309 19.2728815,52.7353085 21.5335186,55.2541569 C22.2128264,53.1796263 23.6241736,52.5612264 24.5894731,50.9724918 C25.2886328,49.8211619 25.4933556,48.0859972 25.3270958,46.5073178 C25.1335397,44.667201 24.3965372,43.7691386 23.6316181,42.2262811 C23.4659786,41.8938284 22.6259944,40.9568017 22.0378814,39.3435573 C21.3486476,37.4519072 23.5242936,38.1136705 24.4163892,39.3360158 C26.2514507,41.850465 29.806805,46.0359764 30.6393447,48.9878303 C30.9420865,50.0612318 31.5531533,51.7354364 30.99792,53.2066499 C30.5189925,54.4736155 29.2546735,55.301291 28.7558941,56.6524696 C28.4333005,57.5279077 28.6498104,59.1135001 28.5263563,59.5 C28.6498104,59.1135001 34.0067262,54.3271855 32.7275183,48.9469808 C32.024016,45.9894707 27.6814091,40.9542879 26.8693416,39.3573833 C27.5728439,39.5528328 28.6392641,39.304593 29.2633588,39.6502434 C29.971824,40.0423994 30.4395848,41.5927983 31.2318004,42.1439535 C32.0482105,42.712077 33.5557154,42.992368 34.5172926,43.3116232 C37.8939796,44.4321588 40.7917391,45.0643847 43.8464529,47.0540738 C46.0425712,48.4844377 47.8062899,50.5313162 49.6190181,52.5172346 C50.9124946,53.9331441 53.8356893,56.4664469 54.7767943,57.9018385 C55.9244832,55.8637584 47.9899202,47.8880338 46.1132936,46.3162674" id="Fill-11" fill="#C8102D"></path>
            </g>
        </g>
    </g>
</svg>